<svg width="210" height="29" viewBox="0 0 210 29" fill="none" xmlns="http://www.w3.org/2000/svg">
<path d="M0 0.122501H15.4088V3.70563H3.90688V9.1875H14.0569V12.7706H3.90688V21.875H2.63298e-06V0.122501H0ZM16.7562 0.122501H20.6938V3.58312H16.7562V0.122501ZM16.8481 6.48812H20.6019V21.875H16.8481V6.48812ZM23.52 6.48812H27.2738V8.27313C27.8235 7.6121 28.5125 7.0807 29.2915 6.71692C30.0705 6.35313 30.9203 6.16595 31.78 6.16875C35.8094 6.16875 37.3931 9.41063 37.3931 12.6263V21.875H33.6394V13.125C33.6394 11.1125 32.6244 9.65126 30.7037 9.65126C28.595 9.65126 27.2738 10.7888 27.2738 13.4619V21.875H23.52V6.48813V6.48812ZM52.0625 12.5344V21.875H48.9694L48.7375 19.8144C47.7531 21.3981 45.675 22.1856 43.925 22.1856C40.7706 22.1856 38.3381 20.37 38.3381 17.1544C38.3381 13.8163 41.0156 12.7094 44.4631 12.7094H48.6456C48.5712 10.4344 47.8931 9.46312 45.4475 9.46312C44.702 9.47021 43.9721 9.67684 43.3335 10.0615C42.6949 10.4462 42.171 10.9949 41.8162 11.6506L38.9375 9.55062C40.4119 7.53812 42.3631 6.18625 45.395 6.18625C49.5819 6.16875 52.0625 8.78063 52.0625 12.5344V12.5344ZM48.6631 15.5181V15.3956H44.695C42.9887 15.3956 42.2012 16.2706 42.2012 17.255C42.2012 18.2394 43.0194 19.005 44.695 19.005C45.6751 19.0267 46.6275 18.6787 47.3628 18.0302C48.098 17.3817 48.5623 16.4802 48.6631 15.505V15.5181V15.5181ZM54.4688 6.48812H58.2225V8.27313C58.7716 7.6114 59.4605 7.07951 60.2397 6.71566C61.0188 6.35181 61.8689 6.16503 62.7288 6.16875C66.7581 6.16875 68.3419 9.41063 68.3419 12.6263V21.875H64.5881V13.125C64.5881 11.1125 63.5731 9.65126 61.6525 9.65126C59.5438 9.65126 58.2225 10.7888 58.2225 13.4619V21.875H54.4688V6.48813V6.48812ZM69.4269 14.1969C69.4269 10.1675 71.8288 6.16875 76.8425 6.16875C79.905 6.16875 82.3156 7.64313 83.4838 10.7056L79.9181 12.0881C79.5156 10.6137 78.3781 9.56375 76.8556 9.56375C74.27 9.56375 73.255 11.9044 73.255 14.1969C73.255 16.4894 74.2394 18.7644 76.8556 18.7644C77.5659 18.7572 78.2533 18.5125 78.8083 18.0693C79.3633 17.6261 79.754 17.0098 79.9181 16.3188L83.3306 17.6313C82.8918 18.9824 82.0282 20.1557 80.8686 20.9764C79.7089 21.797 78.3152 22.2212 76.895 22.1856C71.8594 22.1638 69.4269 18.27 69.4269 14.1969V14.1969ZM84.5556 0.122501H88.4931V3.58312H84.5556V0.122501ZM84.6475 6.48812H88.4013V21.875H84.6475V6.48812ZM103.53 12.5344V21.875H100.437L100.209 19.8144C99.225 21.3981 97.1469 22.1856 95.3969 22.1856C92.2425 22.1856 89.8144 20.37 89.8144 17.1544C89.8144 13.8163 92.4875 12.7094 95.9394 12.7094H100.126C100.047 10.4344 99.3694 9.46312 96.9238 9.46312C96.1785 9.46868 95.4485 9.67472 94.8104 10.0596C94.1722 10.4445 93.6495 10.9941 93.2969 11.6506L90.4356 9.5725C91.91 7.56 93.8656 6.20812 96.8931 6.20812C101.063 6.16875 103.53 8.78063 103.53 12.5344V12.5344ZM100.131 15.5181V15.3956H96.145C94.4388 15.3956 93.6513 16.2706 93.6513 17.255C93.6513 18.2394 94.4694 19.005 96.145 19.005C97.1284 19.0322 98.0857 18.6866 98.8249 18.0374C99.5641 17.3883 100.031 16.4837 100.131 15.505V15.5181V15.5181ZM105.875 18.8125V0.122498H109.629V17.7625C109.629 18.4887 110.106 18.795 110.858 18.795C111.204 18.7863 111.549 18.7556 111.891 18.7031V21.875C110.968 22.0614 110.031 22.1654 109.091 22.1856C107.306 22.1638 105.875 21.5031 105.875 18.8125V18.8125ZM113.75 0.122498H120.776C124.836 0.122498 128.297 2.44562 128.297 6.51875C128.297 9.2575 126.516 11.3312 124.053 12.18L130.113 21.875H125.637L120.282 12.565H117.657V21.875H113.75V0.122498V0.122498ZM121.144 9.38C123.222 9.28812 124.451 8.21187 124.451 6.58C124.451 4.78187 123.051 3.61375 120.82 3.61375H117.688V9.38H121.144V9.38ZM129.767 14.2275C129.767 10.2287 132.103 6.16875 137.305 6.16875C142.686 6.16875 144.423 10.4869 144.423 13.9169C144.437 14.4134 144.391 14.9099 144.287 15.3956H133.735C134.059 17.4081 135.166 18.7644 137.581 18.7644C138.279 18.786 138.973 18.6507 139.612 18.3682C140.251 18.0858 140.819 17.6635 141.273 17.1325L143.854 19.3944C143.075 20.2947 142.105 21.0103 141.014 21.4893C139.924 21.9683 138.74 22.1987 137.55 22.1638C132.256 22.1638 129.767 18.375 129.767 14.2275V14.2275ZM140.735 12.6875C140.743 12.3606 140.7 12.0343 140.608 11.7206C140.227 10.1369 138.902 9.31875 137.274 9.31875C135.056 9.31875 134.089 10.7669 133.735 12.6875H140.735V12.6875ZM146.02 6.48812H149.896V8.04562C150.972 6.73312 152.679 6.18625 154.271 6.18625C158.528 6.18625 160.834 9.93562 160.834 14.1837C160.834 18.4319 158.511 22.1812 154.188 22.1812C152.543 22.1812 150.946 21.6562 149.87 20.335V28.2406H146.02V6.48812V6.48812ZM157.063 14.1706C157.063 11.6156 155.925 9.625 153.339 9.625C150.754 9.625 149.555 11.5762 149.555 14.1619C149.555 16.7475 150.754 18.76 153.339 18.76C155.925 18.76 157.063 16.7169 157.063 14.1706V14.1706ZM161.053 14.1356C161.053 9.79562 164.176 6.16875 168.928 6.16875C173.679 6.16875 176.802 9.79562 176.802 14.1356C176.802 18.4756 173.683 22.1637 168.928 22.1637C164.172 22.1637 161.053 18.4887 161.053 14.1356ZM172.896 14.1356C172.896 11.6112 171.776 9.41062 168.927 9.41062C166.079 9.41062 164.959 11.5981 164.959 14.1356C164.959 16.6731 166.101 18.9481 168.927 18.9481C171.754 18.9481 172.896 16.6556 172.896 14.1356ZM178.277 6.48812H181.934V9.07375C182.238 8.22351 182.797 7.48792 183.534 6.96783C184.272 6.44774 185.153 6.16862 186.056 6.16875C186.575 6.15824 187.091 6.25064 187.575 6.44061C188.059 6.63058 188.5 6.91437 188.873 7.27562L187.167 10.3381C186.672 9.99867 186.087 9.81575 185.487 9.81312C183.737 9.81312 181.904 11.445 181.904 15.3519V21.84H178.277V6.48812V6.48812Z" fill="#0066FF"/>
<path d="M189.875 17.6094V9.625H187.398V6.48813H189.936V2.67313L193.62 0V6.48813H197.465V9.625H193.62V16.9488C193.62 18.4231 194.342 18.8563 195.326 18.8563C196.07 18.824 196.799 18.6347 197.465 18.3006V21.7C196.564 22.0068 195.618 22.1634 194.665 22.1638C191.664 22.1638 189.875 20.4094 189.875 17.6094V17.6094Z" fill="#0066FF"/>
<path d="M197.445 17.8544L200.429 16.5419C200.845 17.6488 201.658 19.0663 203.706 19.0663C205.456 19.0663 206.195 18.0513 206.195 17.2331C206.195 14.6519 198.473 16.3888 198.473 10.9594C198.473 7.71314 201.212 6.17751 204.183 6.17751C205.366 6.1412 206.536 6.43352 207.563 7.02201C208.591 7.6105 209.434 8.47214 210.002 9.51126L207.097 11.1081C206.572 10.1544 205.71 9.15251 204.034 9.15251C202.805 9.15251 202.052 9.75189 202.052 10.465C202.052 12.7881 209.866 11.4056 209.866 17.0275C209.866 20.58 206.773 22.1506 203.868 22.1506C200.657 22.1638 198.189 20.2256 197.445 17.8544V17.8544Z" fill="#0066FF"/>
</svg>
